# xmcd
#
# Track frame offsets:
# 150
# 14955
# 29210
# 54045
# 74233
# 98543
# 113920
# 134828
# 152115
# 167583
#
# Disc length: 2405 seconds
#
#
# Revision: 0
# Processed by: cddbd v1.5.1PL0 Copyright (c) Steve Scherf et al.
# Submitted via: FreeRIP 2.30 
#
DISCID=9209630a
DTITLE=Darlene Love and Lani Groves - Bringing It Home
DYEAR=1992
DGENRE=Soul
TTITLE0=It'sAlright
TTITLE1=If I Could Turn Back The Hands Of Time
TTITLE2=Let It Be
TTITLE3=Use Me
TTITLE4=This Is A Man's World
TTITLE5=Rescue Me
TTITLE6=I'll Be There
TTITLE7=Whole Lotta Shakin' In My Heart
TTITLE8=Bring It On Home
TTITLE9=Too Many Fish In The Sea
EXTD=
EXTT0=
EXTT1=
EXTT2=
EXTT3=
EXTT4=
EXTT5=
EXTT6=
EXTT7=
EXTT8=
EXTT9=
PLAYORDER=
